<svg width="200" height="200" viewBox="0 0 200 200" xmlns="http://www.w3.org/2000/svg">
  <style>
    @font-face {
      font-family: 'Zooja Pro';
      src: url('../fonts/Web%20Fonts/d9eab5143efc98cbd074fe4083108c58.woff2') format('woff2'),
           url('../fonts/Web%20Fonts/d9eab5143efc98cbd074fe4083108c58.woff') format('woff'),
           url('../fonts/Zooja%20Pro.ttf') format('truetype');
      font-weight: normal;
      font-style: normal;
      font-display: swap;
    }
  </style>
  <defs>
    <!-- Adouci: dégradé plus discret (teal -> teal foncé) -->
    <linearGradient id="mainGradient" x1="0%" y1="0%" x2="100%" y2="100%">
      <stop offset="0%" style="stop-color:#10A0A5;stop-opacity:1" />
      <stop offset="100%" style="stop-color:#0F8084;stop-opacity:1" />
    </linearGradient>
    <linearGradient id="walletGradient" x1="0%" y1="0%" x2="100%" y2="100%">
      <stop offset="0%" style="stop-color:#ffffff;stop-opacity:0.95" />
      <stop offset="100%" style="stop-color:#f8f9fa;stop-opacity:0.9" />
    </linearGradient>
    <linearGradient id="chartGradient" x1="0%" y1="0%" x2="100%" y2="100%">
      <stop offset="0%" style="stop-color:#00d4aa;stop-opacity:1" />
      <stop offset="100%" style="stop-color:#00b894;stop-opacity:1" />
    </linearGradient>
    <linearGradient id="vintedOutline" x1="0%" y1="0%" x2="100%" y2="100%">
      <stop offset="0%" style="stop-color:#ffffff;stop-opacity:0.9" />
      <stop offset="100%" style="stop-color:#ffffff;stop-opacity:0.7" />
    </linearGradient>
    <filter id="glow">
      <feGaussianBlur stdDeviation="3" result="coloredBlur"/>
      <feMerge>
        <feMergeNode in="coloredBlur"/>
        <feMergeNode in="SourceGraphic"/>
      </feMerge>
    </filter>
    <filter id="dropshadow" x="-50%" y="-50%" width="200%" height="200%">
      <feDropShadow dx="2" dy="4" stdDeviation="3" flood-color="rgba(0,0,0,0.2)"/>
    </filter>
  </defs>

  <circle cx="100" cy="100" r="95" fill="url(#mainGradient)" filter="url(#dropshadow)"/>

  <!-- Vinted V: fill -->
   <g opacity="0.9" transform="translate(100,154) scale(0.22,-0.22) translate(-204.5, 0)">
    <path d="M534 693q1 1 2 1v-1q-6 -11 -13.5 -32.5t-16 -46.5t-17 -49t-15.5 -40q1 -1 1 -4q0 -7 -5 -16.5t-7 -13.5l-39 -121q-11 -30 -22.5 -67.5t-27 -76t-35 -74.5t-46.5 -63t-61.5 -42.5t-78.5 -12.5q-7 -4 -17 -4q-23 0 -38.5 21t-24 49t-10.5 56t1 43q-3 28 -5 63t-2 73t0.5 78.5t1.5 78.5l6 103q1 18 12.5 33t28.5 26t37 17.5t40 6.5q37 0 61 -15.5t23 -46.5q0 -9 -6.5 -30.5t-8.5 -46.5q-3 -88 -9 -172.5t-9 -173.5v-12v-18.5t0.5 -17t2.5 -8.5q11 18 22 41t21 48.5t20 52t19 50.5q16 43 31.5 86.5t33 86.5t38.5 85t47 81q-1 -5 -3.5 -9.5t-1.5 -8.5q0 -2 2 -2t3.5 3l2.5 5q1 0 3 1.5t4 1.5q1 -1 1 -2q8 6 12 13t9 13v-4q0 1 2 3l1 1h1q-1 -1 -1 -2q3 0 6.5 4.5t6.5 4.5q1 0 2 -1q1 0 5.5 3.5t6.5 8.5q2 0 2 -6z" fill="#FFFFFF" stroke="#FFFFFF" stroke-width="2.2" vector-effect="non-scaling-stroke" stroke-linejoin="round" stroke-linecap="round"/>
  </g>
  <!-- Vinted V: thin outline -->
  <g opacity="0.9" transform="translate(100,154) scale(0.22,-0.22) translate(-204.5, 0)">
    <path d="M534 693q1 1 2 1v-1q-6 -11 -13.5 -32.5t-16 -46.5t-17 -49t-15.5 -40q1 -1 1 -4q0 -7 -5 -16.5t-7 -13.5l-39 -121q-11 -30 -22.5 -67.5t-27 -76t-35 -74.5t-46.5 -63t-61.5 -42.5t-78.5 -12.5q-7 -4 -17 -4q-23 0 -38.5 21t-24 49t-10.5 56t1 43q-3 28 -5 63t-2 73t0.5 78.5t1.5 78.5l6 103q1 18 12.5 33t28.5 26t37 17.5t40 6.5q37 0 61 -15.5t23 -46.5q0 -9 -6.5 -30.5t-8.5 -46.5q-3 -88 -9 -172.5t-9 -173.5v-12v-18.5t0.5 -17t2.5 -8.5q11 18 22 41t21 48.5t20 52t19 50.5q16 43 31.5 86.5t33 86.5t38.5 85t47 81q-1 -5 -3.5 -9.5t-1.5 -8.5q0 -2 2 -2t3.5 3l2.5 5q1 0 3 1.5t4 1.5q1 -1 1 -2q8 6 12 13t9 13v-4q0 1 2 3l1 1h1q-1 -1 -1 -2q3 0 6.5 4.5t6.5 4.5q1 0 2 -1q1 0 5.5 3.5t6.5 8.5q2 0 2 -6z" fill="none" stroke="rgba(255,255,255,0.75)" stroke-width="1.2" vector-effect="non-scaling-stroke" stroke-linejoin="round" stroke-linecap="round"/>
  </g>

</svg>